<svg xmlns="http://www.w3.org/2000/svg" xmlns:xlink="http://www.w3.org/1999/xlink" width="500" zoomAndPan="magnify" viewBox="0 0 375 149.999998" height="200" preserveAspectRatio="xMidYMid meet" version="1.0"><defs><g/><clipPath id="1f43123ae6"><path d="M 75 18.070312 L 147 18.070312 L 147 90 L 75 90 Z M 75 18.070312 " clip-rule="nonzero"/></clipPath><clipPath id="9a311c3d5b"><path d="M 72.71875 54.113281 C 72.71875 64.230469 76.738281 73.9375 83.890625 81.089844 C 91.046875 88.246094 100.75 92.265625 110.867188 92.265625 C 120.984375 92.265625 130.6875 88.246094 137.84375 81.089844 C 144.996094 73.9375 149.015625 64.230469 149.015625 54.113281 C 149.015625 43.996094 144.996094 34.292969 137.84375 27.140625 C 130.6875 19.984375 120.984375 15.964844 110.867188 15.964844 C 100.75 15.964844 91.046875 19.984375 83.890625 27.140625 C 76.738281 34.292969 72.71875 43.996094 72.71875 54.113281 Z M 72.71875 54.113281 " clip-rule="nonzero"/></clipPath><clipPath id="1e96707219"><path d="M 110.867188 18.492188 C 120.316406 18.492188 129.375 22.246094 136.054688 28.925781 C 142.738281 35.605469 146.492188 44.667969 146.492188 54.113281 C 146.492188 63.5625 142.738281 72.625 136.054688 79.304688 C 129.375 85.984375 120.316406 89.738281 110.867188 89.738281 C 101.417969 89.738281 92.359375 85.984375 85.675781 79.304688 C 78.996094 72.625 75.242188 63.5625 75.242188 54.113281 C 75.242188 44.667969 78.996094 35.605469 85.675781 28.925781 C 92.359375 22.246094 101.417969 18.492188 110.867188 18.492188 Z M 110.867188 18.492188 " clip-rule="nonzero"/></clipPath><clipPath id="599b53aa4b"><path d="M 72.71875 15.964844 L 148.484375 15.964844 L 148.484375 91.734375 L 72.71875 91.734375 Z M 72.71875 15.964844 " clip-rule="nonzero"/></clipPath><clipPath id="d4591f42bc"><path d="M 72.71875 54.113281 C 72.71875 64.230469 76.738281 73.9375 83.890625 81.089844 C 91.046875 88.246094 100.75 92.265625 110.867188 92.265625 C 120.984375 92.265625 130.6875 88.246094 137.84375 81.089844 C 144.996094 73.9375 149.015625 64.230469 149.015625 54.113281 C 149.015625 43.996094 144.996094 34.292969 137.84375 27.140625 C 130.6875 19.984375 120.984375 15.964844 110.867188 15.964844 C 100.75 15.964844 91.046875 19.984375 83.890625 27.140625 C 76.738281 34.292969 72.71875 43.996094 72.71875 54.113281 Z M 72.71875 54.113281 " clip-rule="nonzero"/></clipPath><clipPath id="ef347f3627"><path d="M 72.71875 54.113281 C 72.71875 64.230469 76.738281 73.933594 83.890625 81.085938 C 91.042969 88.238281 100.746094 92.257812 110.863281 92.257812 C 120.980469 92.257812 130.683594 88.238281 137.839844 81.085938 C 144.992188 73.933594 149.011719 64.230469 149.011719 54.113281 C 149.011719 43.996094 144.992188 34.292969 137.839844 27.136719 C 130.683594 19.984375 120.980469 15.964844 110.863281 15.964844 C 100.746094 15.964844 91.042969 19.984375 83.890625 27.136719 C 76.738281 34.292969 72.71875 43.996094 72.71875 54.113281 Z M 72.71875 54.113281 " clip-rule="nonzero"/></clipPath><clipPath id="4c8b1c9a8e"><path d="M 40 31 L 105 31 L 105 145 L 40 145 Z M 40 31 " clip-rule="nonzero"/></clipPath><clipPath id="6bc1d0fe07"><path d="M 9.035156 75.675781 L 104.957031 31.339844 L 136.570312 99.742188 L 40.648438 144.078125 Z M 9.035156 75.675781 " clip-rule="nonzero"/></clipPath><clipPath id="859eccf13e"><path d="M 56.910156 53.546875 L 104.789062 31.417969 L 88.527344 121.949219 L 40.648438 144.078125 Z M 56.910156 53.546875 " clip-rule="nonzero"/></clipPath><clipPath id="83f71e5d71"><path d="M 40 31 L 105 31 L 105 145 L 40 145 Z M 40 31 " clip-rule="nonzero"/></clipPath><clipPath id="3d3df91bf2"><path d="M 9.035156 75.675781 L 104.554688 31.527344 L 136.34375 100.300781 L 40.824219 144.453125 Z M 9.035156 75.675781 " clip-rule="nonzero"/></clipPath><clipPath id="a52d7a97c8"><path d="M 9.035156 75.679688 L 104.765625 31.429688 L 136.570312 100.238281 L 40.839844 144.484375 Z M 9.035156 75.679688 " clip-rule="nonzero"/></clipPath><clipPath id="b7ee14b2e0"><path d="M 56.902344 53.554688 L 104.765625 31.429688 L 88.507812 121.9375 L 40.644531 144.0625 Z M 56.902344 53.554688 " clip-rule="nonzero"/></clipPath><clipPath id="5b487056ce"><path d="M 36.910156 8.90625 L 190.25 8.90625 L 190.25 58.285156 L 36.910156 58.285156 Z M 36.910156 8.90625 " clip-rule="nonzero"/></clipPath><clipPath id="f5f77b4998"><path d="M 79.40625 8.90625 L 190.121094 8.90625 L 147.628906 58.285156 L 36.910156 58.285156 Z M 79.40625 8.90625 " clip-rule="nonzero"/></clipPath><clipPath id="3411fd45b7"><path d="M 36.921875 8.90625 L 190.550781 8.90625 L 190.550781 57.3125 L 36.921875 57.3125 Z M 36.921875 8.90625 " clip-rule="nonzero"/></clipPath><clipPath id="b06214c2f0"><path d="M 79.402344 8.90625 L 190.082031 8.90625 L 147.601562 58.269531 L 36.921875 58.269531 Z M 79.402344 8.90625 " clip-rule="nonzero"/></clipPath></defs><rect x="-37.5" width="450" fill="#ffffff" y="-15" height="179.999997" fill-opacity="1"/><rect x="-37.5" width="450" fill="#ffffff" y="-15" height="179.999997" fill-opacity="1"/><path stroke-linecap="butt" transform="matrix(1.012341, 0, 0, 1.012341, -324.735681, 34.403555)" fill="none" stroke-linejoin="miter" d="M 455.593879 86.999389 L 438.422964 86.999389 L 450.377008 30.454989 L 467.60966 30.454989 Z M 469.975002 53.930909 C 472.834248 52.534084 475.766809 51.515405 478.764966 50.871014 C 481.763124 50.226622 485.112417 49.906355 488.808986 49.906355 C 492.409091 49.906355 495.387955 50.188036 497.741721 50.747537 C 500.099345 51.310898 501.97464 52.125069 503.371465 53.190052 C 504.76829 54.247317 505.748383 55.505231 506.307885 56.971511 C 506.867386 58.422357 507.149066 60.073852 507.149066 61.922137 C 507.149066 62.990978 507.079611 64.14085 506.944559 65.371754 C 506.809507 66.602658 506.655161 67.644489 506.493099 68.493388 L 502.530283 86.999389 L 488.994201 86.999389 L 487.4739 81.620455 L 486.960702 81.620455 C 485.166437 83.576782 483.078917 85.07779 480.694283 86.115762 C 478.313506 87.157593 475.944306 87.678508 473.586682 87.678508 C 472.247736 87.678508 470.924225 87.477859 469.623866 87.08042 C 468.338941 86.68684 467.18521 86.081034 466.174249 85.27458 C 465.174863 84.468126 464.36455 83.434013 463.751028 82.17224 C 463.133646 80.898891 462.824956 79.367014 462.824956 77.57275 C 462.824956 74.655624 463.619834 72.340444 465.209591 70.63107 C 466.810923 68.917837 468.913878 67.632913 471.514596 66.768579 C 474.130749 65.89267 477.074885 65.344744 480.347006 65.124802 C 483.630702 64.90486 486.933691 64.796818 490.244398 64.796818 C 490.356298 64.233458 490.49135 63.434721 490.657271 62.39289 C 490.834768 61.351059 490.923517 60.444281 490.923517 59.660978 C 490.923517 58.650016 490.657271 57.712369 490.120922 56.848035 C 489.58843 55.972126 488.481003 55.532242 486.79478 55.532242 C 484.838454 55.532242 483.391467 56.107178 482.461536 57.25705 C 481.543182 58.410781 480.941235 59.799889 480.655696 61.428232 L 468.369811 61.428232 Z M 489.322185 68.74034 L 487.801883 68.74034 C 486.173541 68.74034 484.780574 68.952565 483.630702 69.377015 C 482.496264 69.801464 481.570192 70.34939 480.860204 71.020792 C 480.161791 71.692194 479.640876 72.452345 479.297458 73.301244 C 478.969474 74.134708 478.803553 74.972032 478.803553 75.805496 C 478.803553 77.159876 479.154688 78.174697 479.853101 78.846099 C 480.551513 79.517501 481.381119 79.853202 482.33806 79.853202 C 483.514943 79.853202 484.68025 79.436469 485.830122 78.599146 C 486.979995 77.750247 487.693842 76.627385 487.967805 75.23056 Z M 547.71101 84.989041 C 545.357245 85.930548 542.872285 86.617384 540.256133 87.041834 C 537.655414 87.466283 534.695843 87.678508 531.385137 87.678508 C 528.46801 87.678508 525.79012 87.385252 523.351464 86.794881 C 520.916667 86.204511 518.798278 85.266863 517.007872 83.981938 C 515.213608 82.681579 513.809066 81.010791 512.794246 78.969575 C 511.783284 76.916782 511.273944 74.427964 511.273944 71.514697 C 511.273944 68.485671 511.79486 65.672727 512.836691 63.072009 C 513.878521 60.455856 515.445126 58.167687 517.540363 56.211361 C 519.647177 54.255034 522.325068 52.711581 525.570178 51.588719 C 528.830722 50.465857 532.704789 49.906355 537.196237 49.906355 C 540.838786 49.906355 544.002865 50.199611 546.684614 50.789982 C 549.381798 51.376494 551.600512 52.707723 553.340755 54.772091 L 550.979272 65.556969 L 539.538427 65.556969 C 539.592448 64.600028 539.646469 63.754987 539.700489 63.029564 C 539.769945 62.292565 539.804673 61.474535 539.804673 60.58705 C 539.804673 58.792786 539.607882 57.519437 539.210443 56.767004 C 538.813004 55.999136 538.168612 55.617131 537.277268 55.617131 C 535.702946 55.617131 534.329273 56.388858 533.148532 57.936169 C 531.971649 59.471905 530.999273 61.32019 530.235264 63.481024 C 529.478972 65.645717 528.91947 67.918452 528.549042 70.303086 C 528.194048 72.683863 528.01655 74.717362 528.01655 76.399726 C 528.01655 77.017107 528.043561 77.646064 528.097582 78.290456 C 528.151603 78.934847 528.275079 79.536794 528.46801 80.100154 C 528.672518 80.659656 528.938764 81.111116 529.266747 81.454534 C 529.610166 81.782518 530.088636 81.948439 530.706017 81.948439 C 531.265519 81.948439 531.909911 81.782518 532.635334 81.454534 C 533.376191 81.111116 534.082321 80.5902 534.753723 79.891788 C 535.425125 79.193375 536.065658 78.282738 536.683039 77.159876 C 537.30042 76.037014 537.778891 74.690351 538.122309 73.116029 L 550.13809 73.116029 Z M 572.522017 70.09472 C 572.302075 71.329483 572.143871 72.506366 572.051264 73.629228 C 571.966374 74.75209 571.927787 75.759193 571.927787 76.646678 C 571.927787 77.156018 571.954798 77.715519 572.008819 78.3329 C 572.06284 78.950282 572.186316 79.525218 572.379247 80.057709 C 572.583755 80.5902 572.865435 81.04166 573.220429 81.412089 C 573.590858 81.770942 574.115632 81.948439 574.802469 81.948439 C 575.296374 81.948439 575.863592 81.782518 576.507984 81.454534 C 577.163952 81.111116 577.816061 80.632645 578.456593 80.015264 C 579.100985 79.401742 579.718366 78.64545 580.304878 77.757964 C 580.895249 76.855044 581.354426 75.840224 581.68241 74.717362 L 595.484738 74.717362 L 593.30847 83.711834 C 592.185608 84.452691 590.892966 85.07779 589.426685 85.583271 C 587.97584 86.077176 586.436245 86.478474 584.804044 86.794881 C 583.175701 87.095855 581.520348 87.315797 579.834125 87.450849 C 578.151762 87.601336 576.554288 87.678508 575.049421 87.678508 C 572.240337 87.678508 569.631901 87.423838 567.224115 86.918358 C 564.812469 86.412877 562.709515 85.540826 560.919109 84.309922 C 559.124845 83.07516 557.704868 81.4391 556.666896 79.401742 C 555.625065 77.345091 555.10415 74.80611 555.10415 71.780943 C 555.10415 69.029738 555.536317 66.336412 556.396792 63.708684 C 557.27656 61.06552 558.735123 58.723331 560.772481 56.682114 C 562.829132 54.629322 565.580337 52.985544 569.029954 51.75464 C 572.479572 50.519878 576.785806 49.906355 581.948656 49.906355 C 587.55139 49.906355 591.768875 50.774548 594.601112 52.514791 C 597.437206 54.255034 598.853324 56.971511 598.853324 60.668081 C 598.853324 62.188382 598.629524 63.83216 598.178064 65.599413 C 597.722745 67.362808 597.055202 68.863817 596.163858 70.09472 Z M 583.715909 60.073852 C 583.715909 58.333609 583.434229 57.156726 582.874728 56.539345 C 582.311367 55.921963 581.636107 55.617131 580.841228 55.617131 C 579.949884 55.617131 579.124137 55.910387 578.356269 56.4969 C 577.603836 57.08727 576.916999 57.874431 576.299618 58.862241 C 575.686095 59.846193 575.122735 60.969055 574.617254 62.230827 C 574.111773 63.488742 573.691182 64.816111 573.363199 66.212936 L 582.955759 66.212936 C 583.067659 65.541534 583.175701 64.843122 583.283743 64.117699 C 583.395643 63.504176 583.492109 62.832774 583.57314 62.107351 C 583.669606 61.366494 583.715909 60.687374 583.715909 60.073852 Z M 583.715909 60.073852 " stroke="#ff7410" stroke-width="5.258337" stroke-opacity="1" stroke-miterlimit="4"/><g fill="#048dfd" fill-opacity="1"><g transform="translate(119.950721, 122.477181)"><g><path d="M 16.515625 0 L -0.859375 0 L 11.25 -57.234375 L 28.703125 -57.234375 Z M 16.515625 0 "/></g></g></g><g fill="#048dfd" fill-opacity="1"><g transform="translate(144.903534, 122.477181)"><g><path d="M 6.125 -33.46875 C 9.019531 -34.894531 11.988281 -35.929688 15.03125 -36.578125 C 18.070312 -37.234375 21.460938 -37.5625 25.203125 -37.5625 C 28.835938 -37.5625 31.847656 -37.273438 34.234375 -36.703125 C 36.617188 -36.140625 38.519531 -35.316406 39.9375 -34.234375 C 41.363281 -33.160156 42.359375 -31.882812 42.921875 -30.40625 C 43.492188 -28.925781 43.78125 -27.25 43.78125 -25.375 C 43.78125 -24.300781 43.707031 -23.140625 43.5625 -21.890625 C 43.425781 -20.640625 43.269531 -19.585938 43.09375 -18.734375 L 39.09375 0 L 25.375 0 L 23.84375 -5.453125 L 23.34375 -5.453125 C 21.519531 -3.460938 19.398438 -1.941406 16.984375 -0.890625 C 14.578125 0.160156 12.179688 0.6875 9.796875 0.6875 C 8.429688 0.6875 7.09375 0.484375 5.78125 0.078125 C 4.476562 -0.316406 3.316406 -0.925781 2.296875 -1.75 C 1.273438 -2.570312 0.453125 -3.617188 -0.171875 -4.890625 C -0.796875 -6.171875 -1.109375 -7.722656 -1.109375 -9.546875 C -1.109375 -12.492188 -0.300781 -14.832031 1.3125 -16.5625 C 2.9375 -18.289062 5.066406 -19.59375 7.703125 -20.46875 C 10.347656 -21.351562 13.332031 -21.910156 16.65625 -22.140625 C 19.976562 -22.367188 23.3125 -22.484375 26.65625 -22.484375 C 26.769531 -23.054688 26.910156 -23.863281 27.078125 -24.90625 C 27.253906 -25.957031 27.34375 -26.882812 27.34375 -27.6875 C 27.34375 -28.707031 27.070312 -29.65625 26.53125 -30.53125 C 25.988281 -31.414062 24.867188 -31.859375 23.171875 -31.859375 C 21.179688 -31.859375 19.71875 -31.273438 18.78125 -30.109375 C 17.84375 -28.941406 17.234375 -27.535156 16.953125 -25.890625 L 4.515625 -25.890625 Z M 25.71875 -18.484375 L 24.1875 -18.484375 C 22.539062 -18.484375 21.132812 -18.269531 19.96875 -17.84375 C 18.8125 -17.414062 17.875 -16.859375 17.15625 -16.171875 C 16.445312 -15.492188 15.921875 -14.726562 15.578125 -13.875 C 15.242188 -13.03125 15.078125 -12.179688 15.078125 -11.328125 C 15.078125 -9.960938 15.429688 -8.9375 16.140625 -8.25 C 16.847656 -7.570312 17.6875 -7.234375 18.65625 -7.234375 C 19.84375 -7.234375 21.019531 -7.660156 22.1875 -8.515625 C 23.351562 -9.367188 24.078125 -10.503906 24.359375 -11.921875 Z M 25.71875 -18.484375 "/></g></g></g><g fill="#048dfd" fill-opacity="1"><g transform="translate(191.913619, 122.477181)"><g><path d="M 37.8125 -2.046875 C 35.425781 -1.078125 32.910156 -0.378906 30.265625 0.046875 C 27.628906 0.472656 24.640625 0.6875 21.296875 0.6875 C 18.335938 0.6875 15.625 0.390625 13.15625 -0.203125 C 10.6875 -0.804688 8.539062 -1.757812 6.71875 -3.0625 C 4.90625 -4.375 3.488281 -6.066406 2.46875 -8.140625 C 1.445312 -10.210938 0.9375 -12.722656 0.9375 -15.671875 C 0.9375 -18.734375 1.460938 -21.582031 2.515625 -24.21875 C 3.566406 -26.863281 5.15625 -29.179688 7.28125 -31.171875 C 9.40625 -33.160156 12.113281 -34.722656 15.40625 -35.859375 C 18.707031 -36.992188 22.628906 -37.5625 27.171875 -37.5625 C 30.859375 -37.5625 34.0625 -37.257812 36.78125 -36.65625 C 39.507812 -36.0625 41.753906 -34.71875 43.515625 -32.625 L 41.140625 -21.71875 L 29.546875 -21.71875 C 29.609375 -22.6875 29.664062 -23.535156 29.71875 -24.265625 C 29.78125 -25.003906 29.8125 -25.832031 29.8125 -26.75 C 29.8125 -28.5625 29.613281 -29.847656 29.21875 -30.609375 C 28.820312 -31.378906 28.164062 -31.765625 27.25 -31.765625 C 25.664062 -31.765625 24.273438 -30.984375 23.078125 -29.421875 C 21.890625 -27.859375 20.910156 -25.984375 20.140625 -23.796875 C 19.378906 -21.617188 18.8125 -19.320312 18.4375 -16.90625 C 18.070312 -14.488281 17.890625 -12.429688 17.890625 -10.734375 C 17.890625 -10.109375 17.914062 -9.46875 17.96875 -8.8125 C 18.03125 -8.15625 18.160156 -7.539062 18.359375 -6.96875 C 18.554688 -6.40625 18.820312 -5.953125 19.15625 -5.609375 C 19.5 -5.273438 19.984375 -5.109375 20.609375 -5.109375 C 21.179688 -5.109375 21.832031 -5.273438 22.5625 -5.609375 C 23.300781 -5.953125 24.007812 -6.476562 24.6875 -7.1875 C 25.375 -7.90625 26.03125 -8.832031 26.65625 -9.96875 C 27.28125 -11.101562 27.765625 -12.460938 28.109375 -14.046875 L 40.28125 -14.046875 Z M 37.8125 -2.046875 "/></g></g></g><g fill="#048dfd" fill-opacity="1"><g transform="translate(236.283641, 122.477181)"><g><path d="M 18.5625 -17.125 C 18.34375 -15.875 18.1875 -14.679688 18.09375 -13.546875 C 18.007812 -12.410156 17.96875 -11.382812 17.96875 -10.46875 C 17.96875 -9.957031 17.992188 -9.390625 18.046875 -8.765625 C 18.109375 -8.140625 18.238281 -7.554688 18.4375 -7.015625 C 18.632812 -6.484375 18.914062 -6.03125 19.28125 -5.65625 C 19.65625 -5.289062 20.179688 -5.109375 20.859375 -5.109375 C 21.378906 -5.109375 21.960938 -5.273438 22.609375 -5.609375 C 23.265625 -5.953125 23.914062 -6.4375 24.5625 -7.0625 C 25.21875 -7.6875 25.84375 -8.453125 26.4375 -9.359375 C 27.039062 -10.273438 27.507812 -11.300781 27.84375 -12.4375 L 41.8125 -12.4375 L 39.609375 -3.328125 C 38.472656 -2.585938 37.164062 -1.960938 35.6875 -1.453125 C 34.207031 -0.941406 32.644531 -0.53125 31 -0.21875 C 29.351562 0.09375 27.675781 0.320312 25.96875 0.46875 C 24.269531 0.613281 22.65625 0.6875 21.125 0.6875 C 18.28125 0.6875 15.640625 0.429688 13.203125 -0.078125 C 10.765625 -0.597656 8.632812 -1.476562 6.8125 -2.71875 C 5 -3.96875 3.566406 -5.628906 2.515625 -7.703125 C 1.460938 -9.773438 0.9375 -12.347656 0.9375 -15.421875 C 0.9375 -18.203125 1.375 -20.925781 2.25 -23.59375 C 3.132812 -26.257812 4.613281 -28.628906 6.6875 -30.703125 C 8.757812 -32.773438 11.539062 -34.4375 15.03125 -35.6875 C 18.519531 -36.9375 22.878906 -37.5625 28.109375 -37.5625 C 33.785156 -37.5625 38.054688 -36.679688 40.921875 -34.921875 C 43.785156 -33.160156 45.21875 -30.40625 45.21875 -26.65625 C 45.21875 -25.125 44.988281 -23.460938 44.53125 -21.671875 C 44.082031 -19.890625 43.40625 -18.375 42.5 -17.125 Z M 29.890625 -27.25 C 29.890625 -29.007812 29.601562 -30.203125 29.03125 -30.828125 C 28.46875 -31.453125 27.789062 -31.765625 27 -31.765625 C 26.09375 -31.765625 25.253906 -31.46875 24.484375 -30.875 C 23.722656 -30.28125 23.03125 -29.484375 22.40625 -28.484375 C 21.78125 -27.492188 21.210938 -26.359375 20.703125 -25.078125 C 20.191406 -23.804688 19.765625 -22.457031 19.421875 -21.03125 L 29.125 -21.03125 C 29.238281 -21.71875 29.351562 -22.429688 29.46875 -23.171875 C 29.582031 -23.796875 29.679688 -24.472656 29.765625 -25.203125 C 29.847656 -25.941406 29.890625 -26.625 29.890625 -27.25 Z M 29.890625 -27.25 "/></g></g></g><g clip-path="url(#1f43123ae6)"><g clip-path="url(#9a311c3d5b)"><g clip-path="url(#1e96707219)"><path fill="#c1ff72" d="M 140.589844 52.757812 C 140.621094 49.601562 141.8125 47.054688 143.253906 47.070312 C 144.695312 47.082031 145.835938 49.652344 145.808594 52.808594 C 145.777344 55.964844 144.582031 58.511719 143.144531 58.496094 C 141.703125 58.484375 140.558594 55.914062 140.589844 52.757812 Z M 140.363281 74.117188 C 142.140625 71.507812 143.859375 69.585938 144.207031 69.824219 C 144.554688 70.058594 143.394531 72.363281 141.617188 74.972656 C 139.84375 77.582031 138.121094 79.503906 137.773438 79.265625 C 137.425781 79.03125 138.585938 76.722656 140.363281 74.117188 Z M 125.601562 68.386719 C 124 66.527344 124.640625 63.351562 127.03125 61.289062 C 129.425781 59.230469 132.660156 59.070312 134.261719 60.929688 C 135.863281 62.789062 135.21875 65.964844 132.828125 68.023438 C 130.4375 70.082031 127.199219 70.246094 125.601562 68.386719 Z M 84.996094 75.113281 C 83.757812 75.847656 81.449219 74.242188 79.839844 71.527344 C 78.230469 68.8125 77.933594 66.015625 79.171875 65.28125 C 80.410156 64.546875 82.71875 66.15625 84.328125 68.871094 C 85.9375 71.585938 86.238281 74.378906 84.996094 75.113281 Z M 125.746094 33.65625 C 127.605469 32.054688 130.78125 32.695312 132.839844 35.089844 C 134.898438 37.480469 135.0625 40.714844 133.203125 42.316406 C 131.34375 43.917969 128.164062 43.277344 126.105469 40.886719 C 124.046875 38.492188 123.886719 35.257812 125.746094 33.65625 Z M 116.921875 19.941406 C 117.253906 19 119.933594 19.078125 122.914062 20.121094 C 125.894531 21.160156 128.039062 22.769531 127.710938 23.714844 C 127.382812 24.65625 124.699219 24.574219 121.71875 23.535156 C 118.742188 22.492188 116.59375 20.882812 116.921875 19.941406 Z M 120.210938 78.773438 C 123.21875 77.816406 126.054688 78.285156 126.539062 79.816406 C 127.027344 81.351562 124.980469 83.367188 121.972656 84.320312 C 118.964844 85.277344 116.132812 84.808594 115.648438 83.277344 C 115.160156 81.742188 117.203125 79.726562 120.210938 78.773438 Z M 110.445312 45.285156 C 113.546875 44.699219 116.539062 46.734375 117.125 49.835938 C 117.714844 52.9375 115.675781 55.925781 112.574219 56.515625 C 109.472656 57.101562 106.484375 55.066406 105.894531 51.964844 C 105.308594 48.863281 107.347656 45.871094 110.445312 45.285156 Z M 98.261719 29.542969 C 97.804688 27.132812 99.949219 24.703125 103.046875 24.117188 C 106.148438 23.527344 109.03125 25.007812 109.488281 27.417969 C 109.945312 29.828125 107.804688 32.257812 104.703125 32.84375 C 101.601562 33.433594 98.71875 31.953125 98.261719 29.542969 Z M 101.75 76 C 98.433594 75.253906 96.183594 72.710938 96.722656 70.316406 C 97.257812 67.921875 100.382812 66.585938 103.699219 67.332031 C 107.015625 68.078125 109.265625 70.621094 108.726562 73.015625 C 108.191406 75.410156 105.066406 76.746094 101.75 76 Z M 94.320312 86.707031 C 94.445312 86.304688 96.988281 86.730469 100.003906 87.660156 C 103.019531 88.59375 105.363281 89.671875 105.242188 90.074219 C 105.117188 90.476562 102.570312 90.046875 99.554688 89.117188 C 96.539062 88.1875 94.195312 87.105469 94.320312 86.707031 Z M 82.90625 31.160156 C 84.960938 28.765625 87.09375 27.222656 87.671875 27.71875 C 88.25 28.210938 87.050781 30.558594 85 32.953125 C 82.945312 35.351562 80.8125 36.894531 80.234375 36.398438 C 79.65625 35.902344 80.851562 33.558594 82.90625 31.160156 Z M 87.015625 44.386719 C 89.46875 44.324219 91.523438 46.832031 91.605469 49.984375 C 91.6875 53.140625 89.765625 55.75 87.3125 55.8125 C 84.859375 55.878906 82.804688 53.371094 82.722656 50.214844 C 82.640625 47.0625 84.5625 44.453125 87.015625 44.386719 Z M 142.628906 32.984375 C 139.894531 28.882812 136.433594 25.386719 132.34375 22.597656 C 128.25 19.808594 123.730469 17.863281 118.910156 16.824219 C 113.917969 15.746094 108.824219 15.683594 103.765625 16.640625 C 98.707031 17.601562 93.988281 19.519531 89.738281 22.351562 C 85.632812 25.082031 82.136719 28.542969 79.347656 32.636719 C 76.558594 36.730469 74.617188 41.25 73.574219 46.070312 C 72.496094 51.058594 72.433594 56.15625 73.394531 61.214844 C 74.351562 66.269531 76.273438 70.992188 79.101562 75.242188 C 81.835938 79.347656 85.296875 82.839844 89.390625 85.628906 C 93.480469 88.417969 98 90.363281 102.820312 91.402344 C 107.8125 92.484375 112.90625 92.542969 117.964844 91.585938 C 123.023438 90.628906 127.742188 88.707031 131.992188 85.875 C 136.097656 83.144531 139.59375 79.683594 142.382812 75.589844 C 145.171875 71.496094 147.113281 66.976562 148.15625 62.160156 C 149.234375 57.167969 149.296875 52.074219 148.335938 47.015625 C 147.378906 41.957031 145.457031 37.234375 142.628906 32.984375 " fill-opacity="1" fill-rule="nonzero"/></g></g></g><g clip-path="url(#599b53aa4b)"><g clip-path="url(#d4591f42bc)"><g clip-path="url(#ef347f3627)"><path stroke-linecap="butt" transform="matrix(2.104644, 0, 0, 2.104644, 72.717918, 15.965588)" fill="none" stroke-linejoin="miter" d="M 0.000395277 18.125486 C 0.000395277 22.932564 1.910234 27.542905 5.308597 30.941268 C 8.70696 34.33963 13.317301 36.24947 18.124379 36.24947 C 22.931457 36.24947 27.541797 34.33963 30.942016 30.941268 C 34.340379 27.542905 36.250218 22.932564 36.250218 18.125486 C 36.250218 13.318408 34.340379 8.708068 30.942016 5.307849 C 27.541797 1.909486 22.931457 -0.000353408 18.124379 -0.000353408 C 13.317301 -0.000353408 8.70696 1.909486 5.308597 5.307849 C 1.910234 8.708068 0.000395277 13.318408 0.000395277 18.125486 Z M 0.000395277 18.125486 " stroke="#ff7410" stroke-width="5.701677" stroke-opacity="1" stroke-miterlimit="4"/></g></g></g><g clip-path="url(#4c8b1c9a8e)"><g clip-path="url(#6bc1d0fe07)"><g clip-path="url(#859eccf13e)"><path fill="#048dfd" d="M 9.035156 75.675781 L 104.6875 31.464844 L 136.304688 99.867188 L 40.648438 144.078125 Z M 9.035156 75.675781 " fill-opacity="1" fill-rule="nonzero"/></g></g></g><g clip-path="url(#83f71e5d71)"><g clip-path="url(#3d3df91bf2)"><g clip-path="url(#a52d7a97c8)"><g clip-path="url(#b7ee14b2e0)"><path stroke-linecap="butt" transform="matrix(1.910443, -0.883026, 0.883026, 1.910443, 9.034974, 75.678917)" fill="none" stroke-linejoin="miter" d="M 25.055533 0.000234955 L 50.109455 -0.000677548 L 25.054779 35.794108 L 0.00085634 35.79502 Z M 25.055533 0.000234955 " stroke="#ff7410" stroke-width="4.988967" stroke-opacity="1" stroke-miterlimit="4"/></g></g></g></g><g clip-path="url(#5b487056ce)"><g clip-path="url(#f5f77b4998)"><path fill="#048dfd" d="M 36.910156 8.90625 L 190.058594 8.90625 L 190.058594 58.285156 L 36.910156 58.285156 Z M 36.910156 8.90625 " fill-opacity="1" fill-rule="nonzero"/></g></g><g clip-path="url(#3411fd45b7)"><g clip-path="url(#b06214c2f0)"><path stroke-linecap="butt" transform="matrix(2.104644, 0, 0, 2.104644, 36.92197, 8.907156)" fill="none" stroke-linejoin="miter" d="M 20.184115 -0.000430496 L 72.772435 -0.000430496 L 52.588275 23.454027 L -0.0000450676 23.454027 Z M 20.184115 -0.000430496 " stroke="#ff7410" stroke-width="4.988967" stroke-opacity="1" stroke-miterlimit="4"/></g></g><path stroke-linecap="butt" transform="matrix(0.849745, 0, 0, 0.849745, 149.01603, -7.142031)" fill="none" stroke-linejoin="miter" d="M 21.996018 103.998875 L 1.636044 103.998875 L 10.765623 60.906891 L 31.295685 60.906891 Z M 33.91136 47.768755 C 33.91136 49.299545 33.594169 50.637263 32.959788 51.781908 C 32.320809 52.921957 31.484161 53.891917 30.440649 54.691789 C 29.410928 55.491662 28.229507 56.093865 26.891789 56.502995 C 25.554071 56.893737 24.184175 57.091407 22.777502 57.091407 C 20.102067 57.091407 17.863343 56.452428 16.052137 55.183665 C 14.254722 53.910305 13.358314 51.90143 13.358314 49.161636 C 13.358314 47.695203 13.661714 46.38047 14.263916 45.222034 C 14.866119 44.049807 15.68438 43.07525 16.709504 42.312153 C 17.753016 41.544459 18.962018 40.965241 20.331915 40.574499 C 21.701812 40.165369 23.122275 39.963102 24.588708 39.963102 C 27.199786 39.963102 29.401734 40.597484 31.199149 41.870844 C 33.010354 43.125817 33.91136 45.093319 33.91136 47.768755 Z M 76.516065 101.603854 C 73.711914 102.725514 70.751466 103.543775 67.634722 104.049441 C 64.531768 104.555108 61.01049 104.807941 57.061694 104.807941 C 53.586386 104.807941 50.39609 104.458571 47.495402 103.755235 C 44.590118 103.051899 42.070979 101.934836 39.933389 100.404045 C 37.795799 98.854867 36.122502 96.864379 34.918096 94.432583 C 33.709094 91.986996 33.106891 89.021951 33.106891 85.55124 C 33.106891 81.942619 33.727481 78.591429 34.964066 75.493072 C 36.205247 72.376328 38.071617 69.650325 40.567771 67.319662 C 43.082312 64.984402 46.272609 63.150212 50.138659 61.812494 C 54.018501 60.474776 58.638454 59.808216 63.989326 59.808216 C 68.328864 59.808216 72.093781 60.157585 75.293271 60.860921 C 78.506552 61.559661 81.149809 63.141018 83.223042 65.604993 L 80.4051 78.45352 L 66.775089 78.45352 C 66.844043 77.308875 66.908401 76.306736 66.972758 75.442506 C 67.055504 74.564485 67.096876 73.589927 67.096876 72.532625 C 67.096876 70.395034 66.857834 68.878035 66.384346 67.981626 C 65.910859 67.066829 65.147762 66.611729 64.085862 66.611729 C 62.210299 66.611729 60.569181 67.531123 59.167106 69.374507 C 57.76503 71.199504 56.606594 73.406049 55.691797 75.980351 C 54.795388 78.55925 54.124231 81.266865 53.687519 84.107791 C 53.260001 86.944121 53.04854 89.366724 53.04854 91.375599 C 53.04854 92.106517 53.080719 92.855823 53.145077 93.623516 C 53.214031 94.39121 53.361134 95.108337 53.586386 95.779495 C 53.830025 96.446055 54.151813 96.9839 54.542555 97.393031 C 54.951685 97.783773 55.521709 97.981443 56.252628 97.981443 C 56.923785 97.981443 57.691479 97.783773 58.555709 97.393031 C 59.43373 96.9839 60.274975 96.36331 61.074848 95.531258 C 61.87472 94.699207 62.642414 93.614323 63.373332 92.276605 C 64.108847 90.938887 64.678871 89.334545 65.088001 87.458982 L 79.402961 87.458982 Z M 108.984454 79.138468 L 132.327861 60.906891 L 145.56713 60.906891 L 125.620884 77.230726 L 140.547241 103.998875 L 118.086452 103.998875 L 107.881182 83.859555 L 103.670358 103.998875 L 83.213848 103.998875 L 97.455257 36.634897 L 117.985319 36.634897 Z M 163.702171 103.998875 L 143.245661 103.998875 L 157.48707 36.634897 L 178.017131 36.634897 Z M 195.467224 83.859555 C 195.205197 85.330585 195.016721 86.732661 194.901797 88.070378 C 194.805261 89.408096 194.754694 90.607905 194.754694 91.665208 C 194.754694 92.272008 194.786873 92.938568 194.855827 93.674083 C 194.920185 94.409598 195.067288 95.094546 195.292539 95.728928 C 195.540776 96.36331 195.871757 96.905752 196.299276 97.342464 C 196.735988 97.769982 197.365772 97.981443 198.184033 97.981443 C 198.767848 97.981443 199.448199 97.783773 200.211296 97.393031 C 200.997377 96.9839 201.769668 96.413876 202.537362 95.678361 C 203.305056 94.947443 204.040571 94.051035 204.73931 92.989135 C 205.442646 91.913444 205.989685 90.704441 206.380428 89.366724 L 222.823784 89.366724 L 220.231094 100.086854 C 218.893376 100.964875 217.348795 101.709584 215.606544 102.311787 C 213.873486 102.900199 212.039296 103.378284 210.099375 103.755235 C 208.159455 104.113799 206.182758 104.375826 204.17848 104.53672 C 202.169604 104.716002 200.271056 104.807941 198.473642 104.807941 C 195.131646 104.807941 192.024095 104.504541 189.150989 103.902338 C 186.282481 103.300135 183.777133 102.26122 181.639543 100.794787 C 179.501952 99.328354 177.814865 97.374643 176.573683 94.947443 C 175.337099 92.497259 174.716508 89.472454 174.716508 85.86843 C 174.716508 82.590792 175.226772 79.382108 176.256493 76.251572 C 177.300004 73.102649 179.037659 70.312289 181.469455 67.880492 C 183.915042 65.434905 187.192681 63.476596 191.306968 62.010163 C 195.416658 60.539134 200.546875 59.808216 206.697619 59.808216 C 213.36782 59.808216 218.392307 60.842533 221.771079 62.915766 C 225.14985 64.984402 226.836938 68.225265 226.836938 72.629161 C 226.836938 74.440367 226.565717 76.398675 226.027871 78.504087 C 225.490026 80.604901 224.690154 82.393122 223.632851 83.859555 Z M 208.80303 71.921228 C 208.80303 69.847995 208.467451 68.445919 207.800891 67.710405 C 207.129734 66.97489 206.320667 66.611729 205.378289 66.611729 C 204.316389 66.611729 203.328041 66.961099 202.413244 67.659838 C 201.516835 68.363174 200.703171 69.300956 199.967657 70.47778 C 199.232142 71.650007 198.565581 72.987724 197.963378 74.490933 C 197.356578 75.989545 196.860106 77.570902 196.469363 79.235005 L 207.897427 79.235005 C 208.026142 78.435132 208.159455 77.603081 208.28817 76.738851 C 208.416885 76.007933 208.531809 75.20806 208.632942 74.34383 C 208.74327 73.461212 208.80303 72.652146 208.80303 71.921228 Z M 208.80303 71.921228 " stroke="#ff7410" stroke-width="6.2645" stroke-opacity="1" stroke-miterlimit="4"/><g fill="#c1ff72" fill-opacity="1"><g transform="translate(151.259888, 81.231425)"><g><path d="M 16.4375 0 L -0.859375 0 L 6.90625 -36.625 L 24.359375 -36.625 Z M 26.578125 -47.78125 C 26.578125 -46.476562 26.304688 -45.34375 25.765625 -44.375 C 25.222656 -43.40625 24.507812 -42.578125 23.625 -41.890625 C 22.75 -41.210938 21.742188 -40.703125 20.609375 -40.359375 C 19.472656 -40.023438 18.3125 -39.859375 17.125 -39.859375 C 14.851562 -39.859375 12.945312 -40.394531 11.40625 -41.46875 C 9.875 -42.550781 9.109375 -44.257812 9.109375 -46.59375 C 9.109375 -47.84375 9.363281 -48.960938 9.875 -49.953125 C 10.382812 -50.941406 11.078125 -51.765625 11.953125 -52.421875 C 12.835938 -53.078125 13.863281 -53.570312 15.03125 -53.90625 C 16.195312 -54.25 17.40625 -54.421875 18.65625 -54.421875 C 20.863281 -54.421875 22.734375 -53.878906 24.265625 -52.796875 C 25.804688 -51.722656 26.578125 -50.050781 26.578125 -47.78125 Z M 26.578125 -47.78125 "/></g></g></g><g fill="#c1ff72" fill-opacity="1"><g transform="translate(176.211882, 81.231425)"><g><path d="M 37.8125 -2.046875 C 35.425781 -1.078125 32.910156 -0.378906 30.265625 0.046875 C 27.628906 0.472656 24.640625 0.6875 21.296875 0.6875 C 18.335938 0.6875 15.625 0.390625 13.15625 -0.203125 C 10.6875 -0.804688 8.539062 -1.757812 6.71875 -3.0625 C 4.90625 -4.375 3.488281 -6.066406 2.46875 -8.140625 C 1.445312 -10.210938 0.9375 -12.722656 0.9375 -15.671875 C 0.9375 -18.734375 1.460938 -21.582031 2.515625 -24.21875 C 3.566406 -26.863281 5.15625 -29.179688 7.28125 -31.171875 C 9.40625 -33.160156 12.113281 -34.722656 15.40625 -35.859375 C 18.707031 -36.992188 22.628906 -37.5625 27.171875 -37.5625 C 30.859375 -37.5625 34.0625 -37.257812 36.78125 -36.65625 C 39.507812 -36.0625 41.753906 -34.71875 43.515625 -32.625 L 41.140625 -21.71875 L 29.546875 -21.71875 C 29.609375 -22.6875 29.664062 -23.535156 29.71875 -24.265625 C 29.78125 -25.003906 29.8125 -25.832031 29.8125 -26.75 C 29.8125 -28.5625 29.613281 -29.847656 29.21875 -30.609375 C 28.820312 -31.378906 28.164062 -31.765625 27.25 -31.765625 C 25.664062 -31.765625 24.273438 -30.984375 23.078125 -29.421875 C 21.890625 -27.859375 20.910156 -25.984375 20.140625 -23.796875 C 19.378906 -21.617188 18.8125 -19.320312 18.4375 -16.90625 C 18.070312 -14.488281 17.890625 -12.429688 17.890625 -10.734375 C 17.890625 -10.109375 17.914062 -9.46875 17.96875 -8.8125 C 18.03125 -8.15625 18.160156 -7.539062 18.359375 -6.96875 C 18.554688 -6.40625 18.820312 -5.953125 19.15625 -5.609375 C 19.5 -5.273438 19.984375 -5.109375 20.609375 -5.109375 C 21.179688 -5.109375 21.832031 -5.273438 22.5625 -5.609375 C 23.300781 -5.953125 24.007812 -6.476562 24.6875 -7.1875 C 25.375 -7.90625 26.03125 -8.832031 26.65625 -9.96875 C 27.28125 -11.101562 27.765625 -12.460938 28.109375 -14.046875 L 40.28125 -14.046875 Z M 37.8125 -2.046875 "/></g></g></g><g fill="#c1ff72" fill-opacity="1"><g transform="translate(220.580433, 81.231425)"><g><path d="M 21.03125 -21.125 L 40.875 -36.625 L 52.125 -36.625 L 35.171875 -22.734375 L 47.859375 0 L 28.78125 0 L 20.09375 -17.125 L 16.515625 0 L -0.859375 0 L 11.25 -57.234375 L 28.703125 -57.234375 Z M 21.03125 -21.125 "/></g></g></g><g fill="#c1ff72" fill-opacity="1"><g transform="translate(271.591506, 81.231425)"><g><path d="M 16.515625 0 L -0.859375 0 L 11.25 -57.234375 L 28.703125 -57.234375 Z M 16.515625 0 "/></g></g></g><g fill="#c1ff72" fill-opacity="1"><g transform="translate(296.5435, 81.231425)"><g><path d="M 18.5625 -17.125 C 18.34375 -15.875 18.1875 -14.679688 18.09375 -13.546875 C 18.007812 -12.410156 17.96875 -11.382812 17.96875 -10.46875 C 17.96875 -9.957031 17.992188 -9.390625 18.046875 -8.765625 C 18.109375 -8.140625 18.238281 -7.554688 18.4375 -7.015625 C 18.632812 -6.484375 18.914062 -6.03125 19.28125 -5.65625 C 19.65625 -5.289062 20.179688 -5.109375 20.859375 -5.109375 C 21.378906 -5.109375 21.960938 -5.273438 22.609375 -5.609375 C 23.265625 -5.953125 23.914062 -6.4375 24.5625 -7.0625 C 25.21875 -7.6875 25.84375 -8.453125 26.4375 -9.359375 C 27.039062 -10.273438 27.507812 -11.300781 27.84375 -12.4375 L 41.8125 -12.4375 L 39.609375 -3.328125 C 38.472656 -2.585938 37.164062 -1.960938 35.6875 -1.453125 C 34.207031 -0.941406 32.644531 -0.53125 31 -0.21875 C 29.351562 0.09375 27.675781 0.320312 25.96875 0.46875 C 24.269531 0.613281 22.65625 0.6875 21.125 0.6875 C 18.28125 0.6875 15.640625 0.429688 13.203125 -0.078125 C 10.765625 -0.597656 8.632812 -1.476562 6.8125 -2.71875 C 5 -3.96875 3.566406 -5.628906 2.515625 -7.703125 C 1.460938 -9.773438 0.9375 -12.347656 0.9375 -15.421875 C 0.9375 -18.203125 1.375 -20.925781 2.25 -23.59375 C 3.132812 -26.257812 4.613281 -28.628906 6.6875 -30.703125 C 8.757812 -32.773438 11.539062 -34.4375 15.03125 -35.6875 C 18.519531 -36.9375 22.878906 -37.5625 28.109375 -37.5625 C 33.785156 -37.5625 38.054688 -36.679688 40.921875 -34.921875 C 43.785156 -33.160156 45.21875 -30.40625 45.21875 -26.65625 C 45.21875 -25.125 44.988281 -23.460938 44.53125 -21.671875 C 44.082031 -19.890625 43.40625 -18.375 42.5 -17.125 Z M 29.890625 -27.25 C 29.890625 -29.007812 29.601562 -30.203125 29.03125 -30.828125 C 28.46875 -31.453125 27.789062 -31.765625 27 -31.765625 C 26.09375 -31.765625 25.253906 -31.46875 24.484375 -30.875 C 23.722656 -30.28125 23.03125 -29.484375 22.40625 -28.484375 C 21.78125 -27.492188 21.210938 -26.359375 20.703125 -25.078125 C 20.191406 -23.804688 19.765625 -22.457031 19.421875 -21.03125 L 29.125 -21.03125 C 29.238281 -21.71875 29.351562 -22.429688 29.46875 -23.171875 C 29.582031 -23.796875 29.679688 -24.472656 29.765625 -25.203125 C 29.847656 -25.941406 29.890625 -26.625 29.890625 -27.25 Z M 29.890625 -27.25 "/></g></g></g></svg>